# xmcd
#
# Track frame offsets:
#	150
#	12507
#	24122
#	36837
#	45672
#	56142
#	66342
#	76272
#	90032
#	102397
#	112932
#	125710
#	138290
#	148835
#	160960
#	173967
#	188050
#	209042
#	220457
#	232622
#
# Disc length: 3281 seconds
#
# Revision: 1
# Processed by: cddbd v1.5.1PL0 Copyright (c) Steve Scherf et al.
# Submitted via: audiograbber 1.83.01
#
DISCID=160ccf14
DTITLE=Various Artist - The Hit Sound Of New Orleans (Vol 1)
DYEAR=1995
DGENRE=R&B
TTITLE0=Irma Thomas - Don't Mess With My Man
TTITLE1=Fats Domino - The Fat Man
TTITLE2=Champion Jack Dupree - Walkin' The Blues
TTITLE3=Chris Kenner - I Like It Like That (Part 1)
TTITLE4=Jessie Hill - Ooh Poo Pah Doo (Part 1)
TTITLE5=The Showmen - It Will Stand
TTITLE6=Benny Spellman - Fortune Teller
TTITLE7=Alvin Robinson - Down Home Girl
TTITLE8=Barbara George - Something You Got
TTITLE9=Clarence 'Frogman' Henry - But I Do
TTITLE10=Johnny Adams - Release Me
TTITLE11=Lee Dorsey - Working In The Coal Mine
TTITLE12=Paul Gayten - Nervous Boogie
TTITLE13=Ernie K-Doe - Te-Ta-Te-Ta-Ta
TTITLE14=Bobby Marchan - There's Something On Your Mind (Part 2)
TTITLE15=Huey "Piano" Smith and The Clowns - Rockin' Pneumonia And The Boogie Woo
TTITLE15=gie Flu
TTITLE16=Eddie Bo - Hook and Sling (Parts 1 and 2)
TTITLE17=Betty Harris - Nearer To You
TTITLE18=Aaron Neville - Tell It Like It Is
TTITLE19=Roy Brown - Hard Luck Blues
EXTD=
EXTT0=
EXTT1=
EXTT2=
EXTT3=
EXTT4=
EXTT5=
EXTT6=
EXTT7=
EXTT8=
EXTT9=
EXTT10=
EXTT11=
EXTT12=
EXTT13=
EXTT14=
EXTT15=
EXTT16=
EXTT17=
EXTT18=
EXTT19=
PLAYORDER=
